<?xml version="1.0" encoding="utf-8"?>
<!-- Svg Vector Icons : http://www.onlinewebfonts.com/icon -->
<!DOCTYPE svg PUBLIC "-//W3C//DTD SVG 1.1//EN" "http://www.w3.org/Graphics/SVG/1.1/DTD/svg11.dtd">
<svg version="1.1" xmlns="http://www.w3.org/2000/svg" xmlns:xlink="http://www.w3.org/1999/xlink" x="0px" y="0px" viewBox="0 0 256 256" enable-background="new 0 0 256 256" xml:space="preserve">
<metadata> Svg Vector Icons : http://www.onlinewebfonts.com/icon </metadata>
<g><g><g><path fill="#000000" d="M119.9,10.1c-15.4,1.3-30.4,5.3-43.6,11.8c-12.2,5.9-22.1,13-31.8,22.7C26.3,62.8,15,85.3,11.1,111c-1.2,7.8-1.5,23.7-0.5,31c3.6,27.1,14.9,50.5,33.5,69.1c9.6,9.7,19.1,16.6,30.8,22.5c12.2,6.1,24.9,10,39.2,11.9c6.6,0.8,22.7,0.7,29.4-0.3c26.7-3.8,49.4-15.1,67.9-33.7c18.5-18.5,29.8-41.2,33.7-67.9c1.3-8.3,1.1-23.8-0.2-32.5c-3.3-21.3-11.7-40.7-24.9-57.3c-4.4-5.6-14-14.9-19.5-19.2c-16.6-12.6-35.1-20.5-55.2-23.5C139.1,10.3,125,9.7,119.9,10.1z M135.2,47.9c17.3,3.1,30.7,16.7,33.8,34.6c0.5,2.5,0.7,7,0.7,12.2v8.2l-3.6,0.3c-5.3,0.4-11.2-0.1-11.7-1c-0.2-0.4-0.5-4.5-0.7-9.1c-0.3-8.9-0.7-11.5-2.9-15.8c-3.9-8-12.5-13.5-22-14c-4.9-0.3-8.3,0.4-12.4,2.5c-5.9,3-10.4,8.1-13,14.5c-1.2,3-1.2,3.6-1.4,12.9l-0.2,9.9h-7.7h-7.8l-0.3-2.8c-0.5-4.9-0.3-13.1,0.4-17.2c3.2-18.5,16.1-31.8,33.8-35C124.4,47.3,131.6,47.2,135.2,47.9z M184.6,159.1v49.6H128H71.4v-49.6v-49.6H128h56.6V159.1z"/><path fill="#000000" d="M124.8,138.7c-3.9,1.2-7.4,4.7-8.5,8.4c-0.9,3-0.9,3.8,0,6.8c0.5,1.7,1.5,3.2,3.2,5.1c1.3,1.5,2.7,3.2,3,3.7c0.4,0.6,0.6,3.6,0.6,7.8v6.8l1.3,1.3c1.1,1,1.8,1.3,3.2,1.3c2.3,0,3.8-0.7,4.7-2c0.6-0.9,0.9-6.8,0.9-14.4c0-1,0.7-1.9,2.5-3.8c3-3,4.1-5.1,4.4-8.3C140.7,143.3,132.4,136.4,124.8,138.7z"/></g></g></g>
</svg>